<?xml version="1.0" encoding="UTF-8" standalone="no"?>
<svg
   xmlns:dc="http://purl.org/dc/elements/1.1/"
   xmlns:cc="http://creativecommons.org/ns#"
   xmlns:rdf="http://www.w3.org/1999/02/22-rdf-syntax-ns#"
   xmlns:svg="http://www.w3.org/2000/svg"
   xmlns="http://www.w3.org/2000/svg"
   xmlns:sodipodi="http://sodipodi.sourceforge.net/DTD/sodipodi-0.dtd"
   xmlns:inkscape="http://www.inkscape.org/namespaces/inkscape"
   height="100%"
   style="fill-rule:evenodd;clip-rule:evenodd;stroke-linejoin:round;stroke-miterlimit:2;"
   version="1.1"
   viewBox="0 0 512 512"
   width="100%"
   xml:space="preserve"
   id="svg4"
   sodipodi:docname="icon-facebook.svg"
   inkscape:version="0.92.4 (5da689c313, 2019-01-14)"><metadata
     id="metadata10"><rdf:RDF><cc:Work
         rdf:about=""><dc:format>image/svg+xml</dc:format><dc:type
           rdf:resource="http://purl.org/dc/dcmitype/StillImage" /></cc:Work></rdf:RDF></metadata><defs
     id="defs8" /><sodipodi:namedview
     pagecolor="#ffffff"
     bordercolor="#666666"
     borderopacity="1"
     objecttolerance="10"
     gridtolerance="10"
     guidetolerance="10"
     inkscape:pageopacity="0"
     inkscape:pageshadow="2"
     inkscape:window-width="1920"
     inkscape:window-height="1017"
     id="namedview6"
     showgrid="false"
     inkscape:zoom="0.4609375"
     inkscape:cx="256"
     inkscape:cy="256"
     inkscape:window-x="-8"
     inkscape:window-y="-8"
     inkscape:window-maximized="1"
     inkscape:current-layer="svg4" /><path
     d="M449.446,0c34.525,0 62.554,28.03 62.554,62.554l0,386.892c0,34.524 -28.03,62.554 -62.554,62.554l-106.468,0l0,-192.915l66.6,0l12.672,-82.621l-79.272,0l0,-53.617c0,-22.603 11.073,-44.636 46.58,-44.636l36.042,0l0,-70.34c0,0 -32.71,-5.582 -63.982,-5.582c-65.288,0 -107.96,39.569 -107.96,111.204l0,62.971l-72.573,0l0,82.621l72.573,0l0,192.915l-191.104,0c-34.524,0 -62.554,-28.03 -62.554,-62.554l0,-386.892c0,-34.524 28.029,-62.554 62.554,-62.554l386.892,0Z"
     id="path2"
     style="fill:#ffffff" /></svg>